# xmcd
#
# Track frame offsets:
# 150
# 12934
# 27248
# 42018
# 54621
# 66714
# 81003
# 99851
# 119988
# 133807
# 146341
# 166537
# 183224
# 194630
# 208978
# 220829
# 235040
# 248410
# 266891
# 280975
#
# Disc length: 3936 seconds
#
#
# Revision: 0
# Processed by: cddbd v1.5.1PL2 Copyright (c) Steve Scherf et al.
# Submitted via: FreeRIP 2.944 
#
DISCID=280f5e14
DTITLE=Various Artist - Country Fire - CD2
DYEAR=1900
DGENRE=Country
TTITLE0=Gunter Gabriel - Her Boss ich brauch mehr Geld
TTITLE1=Linda Feller - Apple Jack
TTITLE2=Johnny Cash - Cats in the cradle
TTITLE3=Don Williams - Some broken hearts never mend
TTITLE4=Tom Astor - Hallo guten Morgen Deutschland
TTITLE5=Dagmar - Komm mach mich glücklich
TTITLE6=Kenny Rogers - The king of oak street
TTITLE7=Jonny Hill - Hallo Teddybär
TTITLE8=Dolly Parton - I wanna go back there
TTITLE9=Truck Stop - Der wilde wilde Westen
TTITLE10=Gunter Gabriel - Ich bin ein Straßenhund
TTITLE11=Linda Feller - Tanzen mit dem Wind
TTITLE12=Johnny Cash - I walk the line
TTITLE13=Dolly Parton - Paradiese Road
TTITLE14=Kenny Rogers - A poem for my little lady
TTITLE15=Tom Astor - Take it easy - nimms leicht
TTITLE16=Dagmar - Forever country
TTITLE17=Don Williams - I belive in you
TTITLE18=Truck Stop - Das gibts doch nur in Dallas
TTITLE19=Joe Hodgkins Boss Band - Hilly Billy Western Willy
EXTD=
EXTT0=
EXTT1=
EXTT2=
EXTT3=
EXTT4=
EXTT5=
EXTT6=
EXTT7=
EXTT8=
EXTT9=
EXTT10=
EXTT11=
EXTT12=
EXTT13=
EXTT14=
EXTT15=
EXTT16=
EXTT17=
EXTT18=
EXTT19=
PLAYORDER=
